<svg width="184" height="151" viewBox="0 0 184 151" fill="none" xmlns="http://www.w3.org/2000/svg">
<path d="M151 40.0924C151 20.8108 138.646 0 118.688 0C104.674 0 96.179 8.26038 92 13.9295C87.821 8.25901 79.3261 0 65.3119 0C45.3541 0 33 20.8108 33 40.0924C33 62.8795 51.3973 81.9026 71.278 99.0671C71.9289 99.6302 72.7042 99.9022 73.4733 99.9022C74.5274 99.9022 75.5702 99.3897 76.2721 98.4097C77.4855 96.715 77.218 94.2591 75.6735 92.9265C57.2041 76.9811 40.1135 59.5447 40.1135 40.0924C40.1135 27.0745 48.1218 7.8121 65.3119 7.8121C81.7143 7.8121 88.5453 22.0368 88.8203 22.6286C89.4214 23.9433 90.6485 24.7675 91.9876 24.7743C91.9925 24.7743 91.9975 24.7743 92.0037 24.7743C93.3378 24.7743 94.5624 23.9474 95.1722 22.6436C95.4547 22.0382 102.287 7.81347 118.689 7.81347C135.879 7.81347 143.888 27.0758 143.888 40.0937C143.888 55.2778 133.84 70.5754 110.315 91.1963C103.911 96.4389 97.9487 98.3769 93.9775 96.3897C90.3374 94.5666 88.2491 89.3034 88.2491 81.9478V65.632C88.2491 63.4753 86.6562 61.7259 84.6924 61.7259H73.3924V53.4874H84.6924C86.6562 53.4874 88.2491 51.7381 88.2491 49.5814V37.1703H95.7521V49.5814C95.7521 51.7381 97.3438 53.4874 99.3089 53.4874H110.609V61.7259H99.3089C97.3451 61.7259 95.7521 63.4753 95.7521 65.632V81.9478C95.7521 84.1044 97.3438 85.8538 99.3089 85.8538C101.273 85.8538 102.866 84.1044 102.866 81.9478V69.5367H114.166C116.129 69.5367 117.722 67.7873 117.722 65.6306V49.58C117.722 47.4234 116.129 45.674 114.166 45.674H102.866V33.2629C102.866 31.1062 101.273 29.3569 99.3089 29.3569H84.6924C82.7286 29.3569 81.1356 31.1062 81.1356 33.2629V45.674H69.8356C67.8718 45.674 66.2789 47.4234 66.2789 49.58V65.6306C66.2789 67.7873 67.8718 69.5367 69.8356 69.5367H81.1356V81.9478C81.1356 92.4946 84.7409 100.349 91.0256 103.497C93.0342 104.503 95.2008 105 97.4907 105C102.615 105 108.359 102.503 114.322 97.658C114.365 97.6252 114.411 97.6034 114.452 97.5665C114.53 97.4981 114.609 97.4284 114.687 97.3587C115.659 96.5551 116.636 95.6927 117.618 94.7647C135.343 78.8932 151 61.2667 151 40.0924Z" fill="url(#paint0_linear_1_327)"/>
<path d="M37.7044 123.55V141H34.2044V133.575H26.7294V141H23.2294V123.55H26.7294V130.725H34.2044V123.55H37.7044ZM54.0243 133.775C54.0243 134.275 53.991 134.725 53.9243 135.125H43.7993C43.8826 136.125 44.2326 136.908 44.8493 137.475C45.466 138.042 46.2243 138.325 47.1243 138.325C48.4243 138.325 49.3493 137.767 49.8993 136.65H53.6743C53.2743 137.983 52.5076 139.083 51.3743 139.95C50.241 140.8 48.8493 141.225 47.1993 141.225C45.866 141.225 44.666 140.933 43.5993 140.35C42.5493 139.75 41.7243 138.908 41.1243 137.825C40.541 136.742 40.2493 135.492 40.2493 134.075C40.2493 132.642 40.541 131.383 41.1243 130.3C41.7076 129.217 42.5243 128.383 43.5743 127.8C44.6243 127.217 45.8327 126.925 47.1993 126.925C48.516 126.925 49.691 127.208 50.7243 127.775C51.7743 128.342 52.5827 129.15 53.1493 130.2C53.7327 131.233 54.0243 132.425 54.0243 133.775ZM50.3993 132.775C50.3827 131.875 50.0577 131.158 49.4243 130.625C48.791 130.075 48.016 129.8 47.0993 129.8C46.2327 129.8 45.4993 130.067 44.8993 130.6C44.316 131.117 43.9577 131.842 43.8243 132.775H50.3993ZM55.679 134.025C55.679 132.625 55.954 131.383 56.504 130.3C57.0707 129.217 57.829 128.383 58.779 127.8C59.7457 127.217 60.8207 126.925 62.004 126.925C63.0373 126.925 63.9373 127.133 64.704 127.55C65.4873 127.967 66.1123 128.492 66.579 129.125V127.15H70.104V141H66.579V138.975C66.129 139.625 65.504 140.167 64.704 140.6C63.9207 141.017 63.0123 141.225 61.979 141.225C60.8123 141.225 59.7457 140.925 58.779 140.325C57.829 139.725 57.0707 138.883 56.504 137.8C55.954 136.7 55.679 135.442 55.679 134.025ZM66.579 134.075C66.579 133.225 66.4123 132.5 66.079 131.9C65.7457 131.283 65.2957 130.817 64.729 130.5C64.1623 130.167 63.554 130 62.904 130C62.254 130 61.654 130.158 61.104 130.475C60.554 130.792 60.104 131.258 59.754 131.875C59.4207 132.475 59.254 133.192 59.254 134.025C59.254 134.858 59.4207 135.592 59.754 136.225C60.104 136.842 60.554 137.317 61.104 137.65C61.6707 137.983 62.2707 138.15 62.904 138.15C63.554 138.15 64.1623 137.992 64.729 137.675C65.2957 137.342 65.7457 136.875 66.079 136.275C66.4123 135.658 66.579 134.925 66.579 134.075ZM77.0224 122.5V141H73.5224V122.5H77.0224ZM84.5554 130.025V136.725C84.5554 137.192 84.6637 137.533 84.8804 137.75C85.1137 137.95 85.497 138.05 86.0304 138.05H87.6554V141H85.4554C82.5054 141 81.0304 139.567 81.0304 136.7V130.025H79.3804V127.15H81.0304V123.725H84.5554V127.15H87.6554V130.025H84.5554ZM97.9728 126.95C99.0228 126.95 99.9561 127.183 100.773 127.65C101.589 128.1 102.223 128.775 102.673 129.675C103.139 130.558 103.373 131.625 103.373 132.875V141H99.8728V133.35C99.8728 132.25 99.5978 131.408 99.0478 130.825C98.4978 130.225 97.7478 129.925 96.7978 129.925C95.8311 129.925 95.0644 130.225 94.4978 130.825C93.9478 131.408 93.6728 132.25 93.6728 133.35V141H90.1728V122.5H93.6728V128.875C94.1228 128.275 94.7228 127.808 95.4728 127.475C96.2228 127.125 97.0561 126.95 97.9728 126.95ZM105.801 134.075C105.801 132.642 106.093 131.392 106.676 130.325C107.259 129.242 108.068 128.408 109.101 127.825C110.134 127.225 111.318 126.925 112.651 126.925C114.368 126.925 115.784 127.358 116.901 128.225C118.034 129.075 118.793 130.275 119.176 131.825H115.401C115.201 131.225 114.859 130.758 114.376 130.425C113.909 130.075 113.326 129.9 112.626 129.9C111.626 129.9 110.834 130.267 110.251 131C109.668 131.717 109.376 132.742 109.376 134.075C109.376 135.392 109.668 136.417 110.251 137.15C110.834 137.867 111.626 138.225 112.626 138.225C114.043 138.225 114.968 137.592 115.401 136.325H119.176C118.793 137.825 118.034 139.017 116.901 139.9C115.768 140.783 114.351 141.225 112.651 141.225C111.318 141.225 110.134 140.933 109.101 140.35C108.068 139.75 107.259 138.917 106.676 137.85C106.093 136.767 105.801 135.508 105.801 134.075ZM120.84 134.025C120.84 132.625 121.115 131.383 121.665 130.3C122.232 129.217 122.99 128.383 123.94 127.8C124.907 127.217 125.982 126.925 127.165 126.925C128.198 126.925 129.098 127.133 129.865 127.55C130.648 127.967 131.273 128.492 131.74 129.125V127.15H135.265V141H131.74V138.975C131.29 139.625 130.665 140.167 129.865 140.6C129.082 141.017 128.173 141.225 127.14 141.225C125.973 141.225 124.907 140.925 123.94 140.325C122.99 139.725 122.232 138.883 121.665 137.8C121.115 136.7 120.84 135.442 120.84 134.025ZM131.74 134.075C131.74 133.225 131.573 132.5 131.24 131.9C130.907 131.283 130.457 130.817 129.89 130.5C129.323 130.167 128.715 130 128.065 130C127.415 130 126.815 130.158 126.265 130.475C125.715 130.792 125.265 131.258 124.915 131.875C124.582 132.475 124.415 133.192 124.415 134.025C124.415 134.858 124.582 135.592 124.915 136.225C125.265 136.842 125.715 137.317 126.265 137.65C126.832 137.983 127.432 138.15 128.065 138.15C128.715 138.15 129.323 137.992 129.89 137.675C130.457 137.342 130.907 136.875 131.24 136.275C131.573 135.658 131.74 134.925 131.74 134.075ZM142.183 129.3C142.633 128.567 143.217 127.992 143.933 127.575C144.667 127.158 145.5 126.95 146.433 126.95V130.625H145.508C144.408 130.625 143.575 130.883 143.008 131.4C142.458 131.917 142.183 132.817 142.183 134.1V141H138.683V127.15H142.183V129.3ZM161.666 133.775C161.666 134.275 161.633 134.725 161.566 135.125H151.441C151.524 136.125 151.874 136.908 152.491 137.475C153.108 138.042 153.866 138.325 154.766 138.325C156.066 138.325 156.991 137.767 157.541 136.65H161.316C160.916 137.983 160.149 139.083 159.016 139.95C157.883 140.8 156.491 141.225 154.841 141.225C153.508 141.225 152.308 140.933 151.241 140.35C150.191 139.75 149.366 138.908 148.766 137.825C148.183 136.742 147.891 135.492 147.891 134.075C147.891 132.642 148.183 131.383 148.766 130.3C149.349 129.217 150.166 128.383 151.216 127.8C152.266 127.217 153.474 126.925 154.841 126.925C156.158 126.925 157.333 127.208 158.366 127.775C159.416 128.342 160.224 129.15 160.791 130.2C161.374 131.233 161.666 132.425 161.666 133.775ZM158.041 132.775C158.024 131.875 157.699 131.158 157.066 130.625C156.433 130.075 155.658 129.8 154.741 129.8C153.874 129.8 153.141 130.067 152.541 130.6C151.958 131.117 151.599 131.842 151.466 132.775H158.041Z" fill="#223A6A"/>
<defs>
<linearGradient id="paint0_linear_1_327" x1="33.001" y1="52.4993" x2="151.001" y2="52.4993" gradientUnits="userSpaceOnUse">
<stop stop-color="#407CE2"/>
<stop offset="0.9997" stop-color="#223A6A"/>
</linearGradient>
</defs>
</svg>
